<svg width="291" height="194" viewBox="0 0 291 194" fill="none" xmlns="http://www.w3.org/2000/svg">
<path d="M130.815 155.027L131.815 156.036H132.401L131.755 155.027H130.815ZM103.596 156.411C102.691 156.411 101.767 156.88 101.767 157.886C101.767 158.41 102.025 158.934 102.878 159.17C103.57 159.361 104.026 159.448 104.374 159.584C104.577 159.659 104.788 159.814 104.788 160.202C104.788 160.577 104.497 160.959 103.728 160.959C103.026 160.959 102.464 160.652 102.464 159.879H101.574C101.597 161.124 102.531 161.667 103.677 161.667C104.676 161.667 105.668 161.224 105.668 160.098C105.668 159.581 105.351 159.012 104.688 158.814C104.429 158.743 103.321 158.455 103.242 158.433C102.883 158.336 102.646 158.139 102.646 157.786C102.646 157.281 103.162 157.129 103.566 157.129C104.173 157.129 104.617 157.366 104.657 158.019H105.537C105.537 156.968 104.647 156.411 103.596 156.411ZM109.105 156.421C107.6 156.421 106.699 157.605 106.699 159.038C106.699 160.477 107.6 161.667 109.105 161.667C110.61 161.667 111.5 160.477 111.5 159.038C111.5 157.605 110.61 156.421 109.105 156.421ZM114.977 156.421C113.471 156.421 112.561 157.605 112.561 159.038C112.561 160.477 113.471 161.667 114.977 161.667C116.189 161.667 117.042 160.846 117.11 159.646H116.25C116.177 160.377 115.758 160.959 114.977 160.959C113.898 160.959 113.441 160.005 113.441 159.038C113.441 158.077 113.898 157.129 114.977 157.129C115.706 157.129 116.067 157.55 116.22 158.129H117.1C116.987 157.045 116.1 156.421 114.977 156.421ZM118.433 156.531V161.554H119.313V156.531H118.433ZM121.051 156.531V161.554H124.72V160.797H121.931V159.332H124.468V158.604H121.931V157.291H124.67V156.531H121.051ZM125.529 156.531V157.291H127.116V161.554H127.995V157.291H129.592V156.531H125.529ZM131.401 156.531L129.481 161.554H130.38L130.855 160.231H132.856L133.322 161.554H134.271L132.341 156.531H131.401ZM109.105 157.129C110.179 157.129 110.621 158.077 110.621 159.038C110.621 160.005 110.179 160.959 109.105 160.959C108.026 160.959 107.578 160.005 107.578 159.038C107.578 158.077 108.026 157.129 109.105 157.129ZM131.846 157.401H131.866L132.624 159.565H131.098L131.846 157.401ZM137.757 156.531V161.554H138.637V159.623H139.973C141.402 159.63 141.681 158.708 141.681 158.09C141.681 157.466 141.402 156.531 139.973 156.531H137.757ZM142.974 156.531V161.554H146.632V160.797H143.844V159.332H146.38V158.604H143.844V157.291H146.581V156.531H142.974ZM147.926 156.531V161.554H148.806V159.484H150.1C150.902 159.484 151.089 159.895 151.089 160.817C151.089 161.059 151.099 161.337 151.232 161.554H152.16C151.975 161.353 151.898 160.817 151.898 160.231C151.898 159.439 151.455 159.209 151.151 159.17V159.151C151.312 159.093 151.979 158.853 151.979 157.886C151.979 157.039 151.416 156.531 150.323 156.531H147.926ZM138.637 157.249H139.931C140.39 157.249 140.801 157.414 140.801 158.077C140.801 158.714 140.309 158.908 139.921 158.908H138.637V157.249ZM148.806 157.249H150.229C150.691 157.249 151.099 157.378 151.099 158.019C151.099 158.54 150.798 158.814 150.242 158.814H148.806V157.249ZM170.809 156.421C169.298 156.421 168.402 157.605 168.402 159.038C168.402 160.477 169.298 161.667 170.809 161.667C172.31 161.667 173.215 160.477 173.215 159.038C173.215 157.605 172.31 156.421 170.809 156.421ZM157.225 156.531L155.294 161.554H156.203L156.678 160.231H158.68L159.146 161.554H160.094L158.166 156.531H157.225ZM161.086 156.531V157.291H163.784L160.863 160.839V161.554H164.977V160.797H161.976L164.906 157.197V156.531H161.086ZM166.333 156.531V161.554H167.209V156.531H166.333ZM174.509 156.531V161.554H175.347V157.867H175.356L177.653 161.554H178.571V156.531H177.743V160.231H177.721L175.437 156.531H174.509ZM180.137 156.531V161.554H181.026V156.531H180.137ZM170.809 157.129C171.883 157.129 172.335 158.077 172.335 159.038C172.335 160.005 171.883 160.959 170.809 160.959C169.732 160.959 169.282 160.005 169.282 159.038C169.282 158.077 169.732 157.129 170.809 157.129ZM157.681 157.401H157.69L158.438 159.565H156.911L157.681 157.401ZM102.161 32.3341V149.782L110.55 149.811V78.4845H115.583V67.5784H110.55V42.4019H118.939V32.3348H102.161V32.3341ZM122.294 32.3341V149.782H130.693V32.3341L122.294 32.3348V32.3341ZM139.071 32.3341V149.782H147.46V78.4845H157.538V149.782H165.928V65.447C165.928 47.4368 158.67 32.3341 155.556 32.3341L139.071 32.3348V32.3341ZM164.25 32.3341V40.299H172.639V149.78H181.026V40.299L189.426 40.2983V32.3335H164.25V32.3341ZM147.46 41.7544H151.755C153.631 41.7544 157.577 50.7962 157.577 64.2225C157.577 66.3811 157.538 69.2564 157.538 69.2564H147.46V41.7544Z" fill="#636B78"/>
</svg>
