<svg width="291" height="194" viewBox="0 0 291 194" fill="none" xmlns="http://www.w3.org/2000/svg">
<path d="M145.499 55.0317C83.3756 55.0317 33.5769 73.6529 33.5769 96.9994C33.5769 120.204 83.7859 138.969 145.499 138.969C207.214 138.969 257.423 120.141 257.423 96.9994C257.423 73.858 207.214 55.0317 145.499 55.0317Z" fill="#636B78"/>
<path d="M189.585 105.889C189.615 106.082 189.867 106.266 190.111 106.353C190.201 106.383 190.245 106.443 190.151 106.647C189.455 108.141 188.814 109.002 187.94 110.3C187.136 111.499 186.231 112.435 185.135 113.335C183.482 114.703 181.186 116.192 179.288 115.191C178.445 114.754 178.081 113.574 178.097 112.619C178.137 109.933 179.332 107.175 181.538 104.465C184.228 101.153 187.202 99.4357 189.153 100.375C191.173 101.338 190.528 103.675 189.624 105.51C189.554 105.652 189.555 105.773 189.585 105.889ZM211.252 84.9601C211.397 84.7038 211.244 84.5166 210.92 84.5166C209.234 84.5166 207.021 84.5204 205.264 84.5204C204.845 84.5204 204.629 84.5705 204.432 84.9609C203.783 86.2036 195.879 98.0498 194.407 100.35C194.159 100.701 193.857 100.652 193.822 100.25C193.673 98.8839 192.493 97.3131 190.634 96.5616C189.217 95.9869 187.832 95.8828 186.392 96.074C183.792 96.4234 181.476 97.7947 179.439 99.3415C176.37 101.675 173.722 104.699 170.304 106.933C168.438 108.15 165.883 109.21 164.173 107.627C162.625 106.192 162.8 103.006 165.168 100.541C165.417 100.283 165.717 100.501 165.669 100.73C165.446 101.845 165.72 102.953 166.566 103.73C167.599 104.656 169.078 104.761 170.343 104.143C171.836 103.403 172.713 101.975 172.969 100.353C173.364 97.8382 171.429 95.62 169.006 95.442C167.038 95.3039 165.151 95.9886 163.312 97.5063C162.39 98.2712 161.867 98.8361 161.069 99.9701C160.875 100.249 160.577 100.277 160.586 99.865C160.676 96.645 159.345 94.8333 156.683 94.7743C154.617 94.7242 152.409 95.846 150.689 97.2178C148.803 98.7326 147.153 100.74 145.385 102.626C145.165 102.859 144.974 102.848 144.912 102.397C144.862 100.264 144.322 98.1971 143.335 96.7297C142.985 96.2191 142.25 95.9668 141.632 96.3112C141.347 96.4674 140.354 96.9239 139.631 97.5057C139.273 97.801 139.133 98.2285 139.292 98.7764C140.245 101.964 140.036 105.588 138.742 108.649C137.555 111.452 135.247 113.98 132.535 114.836C130.748 115.403 128.891 115.125 127.741 113.541C126.162 111.355 126.8 107.553 129.153 104.396C131.23 101.616 134.234 99.8497 137.23 98.7127C137.582 98.5765 137.655 98.3503 137.555 98.0509C137.393 97.5584 137.133 96.8874 137.028 96.5813C136.752 95.8495 135.983 95.7313 135.044 95.8335C132.866 96.0867 130.902 96.8326 128.963 97.8713C123.883 100.592 121.336 105.856 120.22 108.673C119.682 110.026 119.223 110.87 118.629 111.618C117.828 112.625 116.823 113.541 114.985 115.156C114.818 115.304 114.694 115.612 114.834 115.899C115.022 116.288 115.978 117.638 116.247 117.759C116.547 117.906 116.894 117.698 117.033 117.6C118.319 116.728 119.858 115.346 120.611 114.409C120.876 114.088 121.147 114.223 121.287 114.71C121.99 117.218 123.83 119.265 126.375 120.121C131.033 121.692 135.864 119.419 139.51 115.46C141.828 112.945 142.664 111.326 143.553 110.227C145.058 108.361 148.028 104.189 151.565 101.51C152.862 100.521 154.397 99.7678 155.169 100.268C155.788 100.67 155.989 101.603 154.995 103.411C151.388 109.996 146.082 117.733 145.109 119.609C144.931 119.935 145.089 120.191 145.428 120.191C147.315 120.182 149.185 120.186 150.898 120.186C151.184 120.176 151.311 120.042 151.454 119.841C154.222 115.509 156.826 111.386 159.618 107.123C159.774 106.871 159.918 107.062 159.924 107.173C159.984 108.162 160.224 109.514 160.812 110.403C161.867 112.045 163.363 112.751 165.021 112.761C166.341 112.781 167.009 112.576 168.432 112.045C169.59 111.615 170.519 111.052 171.233 110.541C171.649 110.251 171.722 110.737 171.712 110.811C171.072 114.25 171.862 118.325 175.281 120.014C179.371 122.031 183.865 119.197 186.45 116.637C186.704 116.391 186.975 116.417 187.001 116.949C187.061 117.926 187.498 119.085 188.306 119.897C190.473 122.071 194.845 121.21 199.234 117.813C202.051 115.638 204.999 112.566 207.662 109.313C207.762 109.187 207.834 108.984 207.642 108.779C207.236 108.355 206.649 107.869 206.247 107.495C206.064 107.339 205.795 107.384 205.641 107.501C202.911 110.097 200.454 113.057 196.903 115.505C195.705 116.341 193.797 117.015 192.939 115.855C192.605 115.404 192.643 114.781 192.969 113.964C194.005 111.382 210.401 86.432 211.252 84.9601Z" fill="white"/>
<path d="M134.129 87.9717C134.199 88.3421 134.344 88.4142 134.512 88.3832C135.347 88.216 136.26 87.5292 136.801 86.7331C137.294 86.0113 137.525 84.9696 137.036 84.5523C136.599 84.1769 135.889 84.283 135.362 84.7485C134.312 85.6755 133.994 86.9901 134.129 87.9717ZM92.3502 120.098C86.2383 120.138 80.8538 116.363 80.2359 109.824C79.8925 106.201 80.9166 102.972 82.967 100.311C84.7864 97.9409 87.865 95.9714 90.4709 95.4903C91.3189 95.3351 92.4582 95.4302 92.9292 95.9949C93.6681 96.8548 93.4558 97.7995 92.717 98.1764C90.7289 99.1915 88.3366 100.929 87.1529 103.302C86.1928 105.239 85.9988 107.573 87.4652 109.797C89.9197 113.502 96.7614 113.604 103.123 107.694C104.698 106.248 106.108 104.858 107.541 103.212C110.343 100.008 111.275 98.841 114.999 93.6749C115.039 93.6148 115.059 93.5367 115.039 93.4987C115.009 93.4286 114.959 93.4186 114.848 93.4086C112.362 93.4787 110.194 94.2185 108.087 95.7931C107.481 96.2355 106.607 96.1735 106.225 95.5908C105.8 94.9321 106.105 94.0745 106.805 93.5903C110.194 91.233 113.897 90.8056 117.678 90.1675C117.675 90.1675 117.94 90.1775 118.156 89.8931C119.709 87.9011 120.881 86.1042 122.535 84.0897C124.202 82.0457 126.356 80.1687 128.001 78.7588C130.298 76.784 131.771 76.1194 133.268 75.3049C133.662 75.0987 133.218 74.8524 133.098 74.8524C124.74 73.2817 116.053 71.2492 107.754 74.3218C102.005 76.4669 99.4864 81.0252 100.698 84.0711C101.56 86.2318 104.401 86.583 107.062 85.2812C109.271 84.1986 111.316 82.4537 112.766 80.2076C113.577 78.9602 115.285 79.8602 114.362 82.0262C111.933 87.7348 107.294 92.2629 101.642 92.4541C96.8315 92.6103 93.728 89.0716 93.7382 84.706C93.7582 76.0954 103.344 70.4234 113.418 69.5754C125.55 68.5728 137.041 71.8044 149.087 73.2655C158.316 74.3832 167.165 74.4065 176.442 72.2754C177.538 72.0372 178.308 72.7369 178.236 73.8446C178.146 75.4457 176.906 76.9876 173.85 78.654C170.376 80.5597 166.74 81.1379 162.944 81.169C153.763 81.2491 145.212 77.667 136.363 75.7441C136.373 76.1315 136.475 76.5931 136.15 76.8376C131.249 80.4532 126.818 84.1247 123.85 89.2816C123.75 89.4007 123.8 89.5138 123.977 89.5018C126.554 89.3647 128.871 89.2986 131.276 89.1064C131.697 89.0663 131.713 88.9662 131.676 88.6599C131.462 86.8824 131.982 84.8554 133.546 83.4611C135.146 82.0263 137.149 81.8632 138.478 82.8965C139.988 84.0732 139.854 86.1896 139.028 87.7767C138.187 89.387 136.799 90.2481 135.466 90.6663C135.466 90.6663 135.185 90.7264 135.227 90.9807C135.277 91.3871 137.096 92.3936 137.251 92.6617C137.401 92.917 137.321 93.3125 137.048 93.6158C136.856 93.8361 136.555 94.0423 136.169 94.0353C135.858 94.0291 135.669 93.9212 135.27 93.7059C134.455 93.2644 133.437 92.5386 132.757 91.6828C132.526 91.3935 132.408 91.3875 131.83 91.4196C129.227 91.5697 125.169 91.9622 122.419 92.3055C121.752 92.3856 121.654 92.5128 121.517 92.744C117.133 99.9736 112.452 107.77 107.312 112.99C101.799 118.586 97.2147 120.059 92.3502 120.098Z" fill="white"/>
<path d="M145.497 61.8945C88.3448 61.8945 42.0188 77.6874 42.0188 97.0127C42.0188 116.339 88.3448 132.134 145.497 132.134C202.648 132.134 248.97 116.339 248.97 97.0127C248.97 77.6874 202.648 61.8945 145.497 61.8945ZM145.497 135.316C86.2643 135.316 38.2478 118.167 38.2478 97.0127C38.2478 75.8547 86.2643 58.7087 145.497 58.7087C204.723 58.7087 252.737 75.8547 252.737 97.0127C252.737 118.167 204.723 135.316 145.497 135.316Z" fill="white"/>
</svg>
