<svg width="291" height="194" viewBox="0 0 291 194" fill="none" xmlns="http://www.w3.org/2000/svg">
<path d="M106.981 131.689C107.761 131.689 108.697 131.611 109.035 132.443C109.242 133.587 109.477 135.173 108.852 136.188C108.385 136.733 107.682 136.708 106.981 136.681V131.689ZM108.333 143.806C107.865 143.78 107.266 143.936 107.033 143.416C106.824 141.595 106.902 139.567 106.981 137.695C108.177 140.035 109.087 142.505 110.283 144.871L115.015 144.793L114.962 143.727C114.599 143.727 114.209 143.806 114.028 143.416L111.089 137.695L112.285 137.436C113.897 136.343 113.714 133.977 113.324 132.261C113.117 131.533 112.363 130.962 111.66 130.831L101.365 130.753V131.82C101.781 131.87 102.353 131.663 102.613 132.131C102.82 135.772 102.743 139.697 102.665 143.311C102.482 143.91 101.781 143.753 101.286 143.858C101.313 144.195 101.234 144.559 101.365 144.871H108.333V143.806ZM115.327 144.871L127.26 144.793V140.685H125.129C124.947 141.7 125.389 143.259 124.141 143.728C123.127 143.675 121.618 144.196 121.021 143.312V138.371C121.307 137.903 122.008 137.981 122.503 138.059C123.127 138.319 122.945 139.022 123.075 139.567C123.673 139.541 124.323 139.619 124.868 139.49V135.304H122.997C122.997 135.823 123.075 136.395 122.685 136.759C122.165 136.759 121.333 137.045 121.021 136.5V132.391C121.54 131.403 123.075 131.897 124.01 131.949C124.921 132.418 124.609 133.535 124.766 134.367H126.87V130.753H115.327V131.768H116.028C116.316 131.768 116.653 131.949 116.706 132.261V143.364C116.471 143.987 115.743 143.702 115.275 143.858C115.301 144.196 115.223 144.56 115.327 144.871ZM130.927 143.493L130.875 135.823L135.737 144.872C137.063 144.846 138.441 144.923 139.741 144.794L139.793 132.262C140 131.637 140.651 131.767 141.17 131.767V130.754C139.663 130.78 138.129 130.702 136.673 130.831C136.7 131.144 136.621 131.482 136.726 131.767C137.218 131.741 137.791 131.715 138.051 132.131L138.103 140.191C136.31 137.071 134.698 133.9 132.981 130.754H127.755V131.767C128.25 131.793 128.821 131.637 129.132 132.131C129.341 135.771 129.263 139.62 129.184 143.311C129.003 143.962 128.25 143.727 127.755 143.857C127.781 144.195 127.703 144.56 127.807 144.872L132.356 144.794C132.356 144.456 132.408 144.092 132.306 143.805C131.811 143.753 131.239 143.909 130.927 143.493ZM146.527 133.25C146.995 134.914 147.619 136.604 147.906 138.371L145.279 138.423C145.409 136.656 146.216 135.018 146.527 133.25ZM140.729 144.871C142.133 144.845 143.589 144.924 144.967 144.793C144.941 144.455 145.02 144.092 144.915 143.806H144.161C143.85 143.754 143.719 143.416 143.797 143.103C144.161 141.985 144.266 140.686 144.915 139.75H148.27C148.919 140.841 149.05 142.142 149.413 143.364C149.231 143.935 148.633 143.728 148.218 143.858V144.793H155.393C155.367 144.455 155.445 144.092 155.341 143.806C154.821 143.832 154.249 143.832 154.015 143.312L150.089 130.753H143.797L143.85 131.82C144.316 131.845 144.941 131.69 145.148 132.183C144.447 135.901 143.12 139.515 142.107 143.181C141.848 143.754 141.275 143.806 140.729 143.806V144.871ZM155.445 132.313L155.523 141.933C155.652 142.765 155.939 143.597 156.693 144.118C158.721 145.495 162.05 145.47 164.311 144.611C165.143 144.17 165.767 143.312 165.923 142.428L166.054 132.261C166.339 131.715 166.936 131.741 167.483 131.767V130.754H163.063V131.767C163.61 131.741 164.181 131.715 164.442 132.261L164.492 141.179C164.468 141.933 164.416 142.661 163.817 143.181C163.037 143.805 161.763 143.78 160.828 143.493C160.333 143.286 159.813 142.791 159.761 142.245V132.261C160.022 131.714 160.593 131.741 161.139 131.767V130.753H154.093V131.767H154.717C155.029 131.741 155.367 132.002 155.445 132.313ZM167.795 143.858C167.821 144.195 167.769 144.559 167.873 144.871L179.236 144.794C179.21 143.415 179.286 141.96 179.157 140.607L176.973 140.686C176.947 141.439 177.077 142.246 176.844 142.921C176.766 143.337 176.35 143.598 175.986 143.727C175.206 143.675 173.931 144.195 173.542 143.311V132.262C173.827 131.715 174.426 131.741 174.971 131.767V130.754H167.795V131.767C168.316 131.794 168.887 131.637 169.174 132.131C169.381 135.771 169.329 139.62 169.251 143.311C169.069 143.962 168.316 143.727 167.795 143.858Z" fill="#636B78"/>
<path d="M189.635 130.753H177.597L177.676 134.94L179.781 134.888C179.833 134.134 179.678 133.302 179.911 132.625C180.094 132.132 180.613 131.638 181.211 131.767C181.342 131.897 181.523 132.028 181.523 132.183L181.471 143.312C181.29 143.857 180.639 143.806 180.094 143.806V144.793H187.217C187.191 144.456 187.269 144.092 187.139 143.806C186.671 143.754 186.021 143.987 185.839 143.364L185.788 132.08C185.865 131.793 186.152 131.742 186.411 131.767C187.764 132.21 187.451 133.77 187.581 134.94L189.714 134.888C189.687 133.509 189.766 132.106 189.635 130.753ZM181.653 153.036C180.067 151.918 177.44 152.282 176.739 150.097C176.634 149.265 176.817 148.563 177.467 148.043C178.013 147.627 178.923 147.784 179.547 147.914C180.743 148.511 180.769 149.785 180.795 150.981L182.98 150.903L182.901 147.42C180.275 146.692 176.584 146.276 174.166 147.784C173.047 148.849 172.944 150.435 173.047 151.918C173.099 155.375 177 155.168 179.026 156.597C179.625 157.066 179.73 157.715 179.651 158.47C179.573 159.146 179.47 159.9 178.715 160.263C178.091 160.497 177.285 160.627 176.61 160.394C175.205 159.743 175.412 158.105 175.231 156.78L173.099 156.832V160.472C175.881 161.797 180.12 162.37 182.59 160.03C183.76 158.782 183.786 156.909 183.525 155.22C183.37 154.31 182.459 153.478 181.653 153.036ZM147.229 149.552C146.293 152.593 146.214 156.623 147.541 159.535C149.881 162.5 154.666 161.798 157.838 160.836C157.812 159.509 157.862 158.132 157.759 156.832L155.653 156.91C155.653 158.028 155.731 159.171 155.08 160.03C154.64 160.628 153.989 160.68 153.339 160.705C152.533 160.628 151.675 160.291 151.337 159.458C150.713 157.065 150.947 154.309 150.895 151.658C151.05 150.227 150.869 148.434 152.533 147.861C153.339 147.628 154.327 147.68 154.951 148.303C155.549 149.057 155.653 150.02 155.575 151.033H157.838V147.471C154.483 146.77 149.101 145.755 147.229 149.552ZM106.097 151.346L108.229 151.293C108.255 150.176 108.021 148.901 109.035 148.226C109.269 148.174 109.685 148.043 109.841 148.355C110.049 152.047 109.97 155.922 109.894 159.639C109.737 160.316 108.983 160.159 108.463 160.264C108.489 160.575 108.41 160.939 108.541 161.2H115.638V160.212C115.146 160.186 114.521 160.316 114.261 159.77L114.209 148.485C114.287 148.226 114.573 148.148 114.832 148.174C116.159 148.616 115.899 150.176 116.028 151.346L118.083 151.293V147.159H106.044L106.097 151.346ZM126.117 152.36C125.753 153.087 124.921 153.035 124.193 153.087V148.096C124.79 148.121 125.441 148.044 125.884 148.408C126.533 149.499 126.507 151.164 126.117 152.36ZM131.186 159.847C130.225 157.897 129.08 155.974 128.3 154.024C128.794 154.128 129.108 153.867 129.498 153.789C131.057 152.671 130.901 150.227 130.433 148.537C130.199 147.861 129.472 147.367 128.821 147.238L118.525 147.16V148.225C118.941 148.251 119.409 148.121 119.695 148.486C120.033 152.1 119.876 155.974 119.825 159.64C119.695 160.394 118.915 160.03 118.447 160.211C118.473 160.55 118.395 160.914 118.525 161.2H125.494L125.441 160.16C124.999 160.108 124.427 160.263 124.193 159.847C123.985 158.002 124.063 155.974 124.141 154.102C125.285 156.442 126.3 158.834 127.365 161.2H132.123V160.16C131.759 160.134 131.369 160.211 131.186 159.847ZM141.405 148.173C141.951 148.121 142.497 148.173 142.784 148.616L142.86 157.976L142.653 158.911C142.341 159.458 141.769 159.926 141.172 160.03C139.976 160.107 138.727 160.056 138.181 158.911L138.103 148.797C138.207 148.043 139.013 148.226 139.534 148.095C139.534 147.784 139.586 147.446 139.481 147.16H132.435V148.173H132.798C133.162 148.252 133.683 148.226 133.813 148.668L133.918 158.521C134.125 159.275 134.437 160.03 135.113 160.523C137.218 161.954 140.547 161.797 142.86 160.887C143.59 160.446 144.135 159.717 144.291 158.911L144.422 148.72C144.577 148.069 145.278 148.173 145.851 148.173V147.16H141.405V148.173ZM172.293 160.211C171.955 160.238 171.67 160.133 171.435 159.9L167.743 151.918V151.605C168.965 150.487 169.459 148.226 171.435 148.226V147.16H167.119V148.226H167.795C167.951 148.304 168.211 148.433 168.106 148.668C166.755 150.383 165.481 152.334 164.05 153.842L164.128 148.668C164.363 148.121 164.961 148.147 165.507 148.174V147.16H158.46V148.174C158.929 148.174 159.475 148.069 159.761 148.537C159.97 152.178 159.891 156 159.813 159.64C159.656 160.29 158.981 160.212 158.46 160.212V161.2H165.507V160.212C164.961 160.238 164.363 160.264 164.128 159.717C164.285 158.34 163.401 156.312 164.882 155.48L167.171 161.2L172.371 161.148C172.345 160.835 172.424 160.497 172.293 160.211Z" fill="#636B78"/>
<path d="M189.521 128.305H101.287V32.3335H189.521V128.305Z" fill="#636B78"/>
<path d="M137.652 43.2884C137.102 43.2884 136.772 43.3984 136.553 43.8382L117.915 77.7041C117.64 78.1989 117.475 78.6387 117.475 79.1335C117.475 79.6833 117.64 80.1231 117.915 80.5629L136.553 114.429C136.772 114.869 137.102 114.979 137.652 114.979H153.595C154.035 114.979 154.42 114.869 154.64 114.484L173.497 80.5629C173.827 80.0681 173.937 79.5733 173.937 79.1335C173.937 78.7487 173.827 78.2539 173.497 77.7041L154.64 43.7832C154.42 43.3984 154.035 43.2884 153.595 43.2884H137.652ZM136.827 79.1885L145.734 60.6062L154.585 79.1335L145.734 97.6059L136.827 79.1885Z" fill="white"/>
<path d="M145.734 58.1872V60.6062L154.585 79.1335H156.234L145.789 58.1323L145.734 58.1872Z" fill="#636B78"/>
<path d="M145.734 58.1872L135.178 79.1335H136.827L142.875 66.5438L145.734 60.6612C149.362 52.7995 152.056 48.1814 154.64 43.7832C154.53 43.5633 154.31 43.3984 154.09 43.3434C151.231 48.1814 148.428 53.2943 145.734 58.1872Z" fill="#636B78"/>
<path d="M137.982 43.3984C137.707 43.4534 137.487 43.4534 137.377 43.6733L118.41 78.034V78.089L118.355 78.144L118.3 78.2539V78.3089L118.245 78.3639L118.19 78.4738V78.5838L118.135 78.6387V78.8037L118.08 78.8587V79.1335H135.178L145.734 58.1872L145.789 58.1323C148.318 53.4592 151.341 48.1264 154.09 43.4534C154.035 43.4534 153.98 43.4534 153.925 43.3984H137.982Z" fill="white"/>
<path d="M146.338 59.3418L156.234 79.1335H173.332C173.332 78.7487 173.167 78.3639 173.002 78.034L154.31 44.388C151.946 48.3463 149.527 52.6346 146.338 59.3418Z" fill="white"/>
<path d="M135.178 79.1335V79.1885L145.734 100.135V97.6058L136.827 79.1885V79.1335H135.178Z" fill="#636B78"/>
<path d="M154.585 79.1336L148.538 91.7233L145.734 97.6059C142.05 105.413 139.356 110.086 136.772 114.484C136.937 114.704 137.102 114.869 137.322 114.924C140.181 110.031 143.04 104.973 145.734 100.08L156.234 79.1336H154.585Z" fill="#636B78"/>
<path d="M156.234 79.1335L145.734 100.08V100.135C143.095 104.808 140.071 110.141 137.322 114.814H153.431C153.705 114.814 153.925 114.814 154.035 114.594L173.002 80.2881L173.057 80.2331V80.1231L173.112 80.0682L173.167 80.0132V79.9032L173.222 79.8482V79.7933L173.277 79.7383V79.5734L173.332 79.5184V79.1335H156.234Z" fill="white"/>
<path d="M118.41 80.2881L137.102 113.879C139.466 109.921 141.885 105.633 145.074 98.9254L135.178 79.1886L118.08 79.1336C118.08 79.5734 118.245 79.9582 118.41 80.2881Z" fill="white"/>
</svg>
