<svg width="291" height="194" viewBox="0 0 291 194" fill="none" xmlns="http://www.w3.org/2000/svg">
<path d="M60.0689 113.539C57.1047 111.683 54.9219 105.276 54.9219 97.6639C54.9219 97.3846 54.923 97.1088 54.9301 96.8342L54.9336 96.8377C46.6903 95.5424 40.7335 91.9923 40.5815 87.7952L40.5567 87.8436C38.5389 90.3505 37.3874 93.2488 37.3874 96.3368C37.3874 105.424 47.3621 112.869 60.0147 113.528L60.0689 113.539ZM33.5769 97.0003C33.5769 86.8323 46.2307 78.5878 61.8404 78.5878C77.4502 78.5878 90.1039 86.8323 90.1039 97.0003C90.1039 107.168 77.4502 115.413 61.8404 115.413C46.2307 115.413 33.5769 107.168 33.5769 97.0003ZM61.8404 81.2444C64.8542 81.2444 67.4165 85.8151 68.3665 92.1939L68.37 92.1845C74.2325 91.2722 78.3377 89.166 78.3377 86.7168C78.3377 83.4284 70.9512 80.7671 61.8404 80.7671C52.7296 80.7671 45.3431 83.4296 45.3431 86.7168C45.3431 89.166 49.4471 91.271 55.3108 92.1845L55.3143 92.1939C56.2643 85.8163 58.8278 81.2444 61.8404 81.2444ZM63.6649 113.528C76.3175 112.869 86.2934 105.424 86.2934 96.3368C86.2934 93.2488 85.1407 90.3505 83.1241 87.8436L83.0993 87.7952C82.9473 91.9923 76.9917 95.5424 68.7472 96.8377L68.7507 96.8342C68.7566 97.1088 68.759 97.3846 68.759 97.6639C68.759 105.276 66.5738 111.683 63.6119 113.539L63.6649 113.528ZM61.8404 92.6677C63.1911 92.6677 64.5029 92.6099 65.7582 92.4991L65.757 92.5003C65.1323 88.4117 63.6142 85.5264 61.8404 85.5264C60.0666 85.5264 58.5497 88.4117 57.9238 92.5003L57.9226 92.4991C59.1779 92.6099 60.4897 92.6677 61.8404 92.6677ZM61.8404 107.808C64.1093 107.808 65.9597 103.087 66.0587 97.1653L66.0705 97.1689C64.7033 97.295 63.2889 97.3622 61.8404 97.3622C60.3919 97.3622 58.9775 97.2962 57.6103 97.1689L57.6233 97.1653C57.7211 103.088 59.5715 107.808 61.8404 107.808ZM177.796 97.0003C177.796 89.2284 184.097 82.9287 191.868 82.9287C199.642 82.9287 205.942 89.2296 205.942 97.0003C205.942 104.773 199.641 111.072 191.868 111.072C184.097 111.072 177.796 104.772 177.796 97.0003ZM191.868 105.912C196.209 105.912 199.727 101.921 199.727 96.9992C199.727 92.0784 196.209 88.0864 191.868 88.0864C187.529 88.0864 184.012 92.0772 184.012 96.9992C184.012 101.921 187.53 105.912 191.868 105.912ZM221.91 88.7912V110.433H215.981V88.7912H216.001H207.71V83.8975H230.182V88.79L221.91 88.7912ZM237.353 104.463L237.348 104.469L235.073 110.434H228.148L239.095 83.8987H246.475L257.423 110.434H250.498L248.223 104.469L248.217 104.463H242.787H237.353ZM242.787 99.9846H246.517L246.515 99.9858L242.812 90.2739H242.76L239.054 99.9858L239.053 99.9846H242.787ZM112.612 88.7912V110.433H106.682V88.7912H106.703H98.4097V83.8975H120.883V88.79L112.612 88.7912ZM122.401 97.0003C122.401 89.2284 128.702 82.9287 136.475 82.9287C144.247 82.9287 150.547 89.2296 150.547 97.0003C150.547 104.773 144.247 111.072 136.475 111.072C128.702 111.072 122.401 104.772 122.401 97.0003ZM136.475 105.912C140.813 105.912 144.333 101.921 144.333 96.9992C144.333 92.0784 140.814 88.0864 136.475 88.0864C132.135 88.0864 128.617 92.0772 128.617 96.9992C128.617 101.921 132.135 105.912 136.475 105.912ZM164.171 110.433H167.178V100.357L177.522 83.8975H170.598L164.171 95.0509L157.745 83.8975H150.82L161.165 100.357V110.432L164.171 110.433Z" fill="#636B78"/>
</svg>
