<svg width="291" height="194" viewBox="0 0 291 194" fill="none" xmlns="http://www.w3.org/2000/svg">
<path fill-rule="evenodd" clip-rule="evenodd" d="M40.2808 87.0103L53.4002 111.614H69.5442L82.6636 86.9694L89.3664 86.9272L89.3809 82.9231H69.3254V86.9411H74.6664L65.4022 104.433L55.3832 87.0021L62.6909 86.9694L62.678 82.9231H33.5769V87.0103H40.2808ZM169.663 87.0103L182.783 111.614H198.928L212.047 86.9694L218.751 86.9272L218.763 82.9231H198.711V86.9411H204.05L194.786 104.433L184.765 87.0021L192.075 86.9694L192.062 82.9231H162.961V87.0103H169.663ZM129.975 82.9231V87.0103H136.678L136.689 107.097H129.622V111.574L136.694 111.614H170.162V98.2591H165.802C165.563 105.33 159.429 107.107 156.846 107.107C154.478 107.107 149.891 107.097 149.891 107.097V87.0021L156.493 86.9691L156.484 82.9228L129.975 82.9231ZM107.113 107.94C103.096 107.94 99.8416 103.129 99.8416 97.1905C99.8416 91.251 103.096 86.4361 107.113 86.4361C111.128 86.4361 114.384 91.251 114.384 97.1905C114.384 103.129 111.128 107.94 107.113 107.94ZM107.408 82.0988C96.0143 82.0988 86.7782 88.8833 86.7782 97.249C86.7782 105.615 96.0141 112.399 107.408 112.399C118.801 112.399 128.039 105.615 128.039 97.249C128.039 88.8833 118.801 82.0988 107.408 82.0988ZM236.498 107.864C232.482 107.864 229.228 102.972 229.228 96.9362C229.228 90.9021 232.483 86.0099 236.498 86.0099C240.514 86.0099 243.767 90.9021 243.767 96.9362C243.767 102.972 240.514 107.864 236.498 107.864ZM236.795 81.6016C225.398 81.6016 216.165 88.4966 216.165 96.9989C216.165 105.501 225.398 112.394 236.795 112.394C248.187 112.394 257.423 105.501 257.423 96.9989C257.423 88.4966 248.187 81.6016 236.795 81.6016Z" fill="#636B78"/>
</svg>
